<?xml version="1.0" encoding="utf-8"?>
<!-- Generator: Adobe Illustrator 28.1.0, SVG Export Plug-In . SVG Version: 6.00 Build 0)  -->
<svg version="1.1" id="Ebene_1" xmlns="http://www.w3.org/2000/svg" xmlns:xlink="http://www.w3.org/1999/xlink" x="0px" y="0px"
	 viewBox="0 0 119.055 34.016" style="enable-background:new 0 0 119.055 34.016;" xml:space="preserve">
<style type="text/css">
	.st0{fill:#FFFFFF;}
</style>
<g id="Wortbildmarke_zweizeilig">
	<path id="Wortmarke_zweizeilig" class="st0" d="M55.279,14.173v-7.79h-0.105l-3.134,7.757h-1.473l-3.134-7.773h-0.105v7.807h-1.971
		V2.834h2.514l3.366,8.216h0.133l3.366-8.216h2.514v11.339H55.279z M63.071,14.339c-0.853,0-1.588-0.178-2.206-0.534
		s-1.094-0.862-1.426-1.518s-0.498-1.427-0.498-2.316c0-0.875,0.167-1.644,0.501-2.306c0.334-0.662,0.802-1.179,1.403-1.55
		c0.602-0.371,1.309-0.557,2.121-0.557c0.524,0,1.02,0.084,1.486,0.252c0.467,0.168,0.88,0.427,1.24,0.778s0.643,0.796,0.85,1.337
		c0.207,0.541,0.31,1.184,0.31,1.93v0.614h-5.919c0.006,0.471,0.092,0.881,0.267,1.221c0.181,0.353,0.434,0.622,0.758,0.809
		s0.705,0.279,1.141,0.279c0.292,0,0.556-0.041,0.792-0.124c0.236-0.084,0.441-0.206,0.615-0.369
		c0.173-0.162,0.305-0.363,0.393-0.603l1.872,0.21c-0.118,0.494-0.343,0.926-0.673,1.293c-0.331,0.367-0.752,0.651-1.265,0.853
		S63.732,14.339,63.071,14.339z M61.192,8.191c-0.153,0.284-0.228,0.596-0.248,0.927h3.988c-0.003-0.384-0.087-0.726-0.249-1.027
		C64.52,7.79,64.294,7.553,64.005,7.38c-0.29-0.173-0.626-0.26-1.01-0.26c-0.41,0-0.77,0.099-1.08,0.296
		C61.605,7.614,61.363,7.872,61.192,8.191z M71.53,14.323c-0.668,0-1.266-0.172-1.794-0.515c-0.528-0.344-0.945-0.842-1.251-1.495
		c-0.307-0.653-0.459-1.447-0.459-2.381c0-0.944,0.156-1.743,0.468-2.394c0.312-0.652,0.733-1.145,1.265-1.479
		c0.531-0.334,1.124-0.501,1.777-0.501c0.499,0,0.908,0.084,1.229,0.252c0.321,0.168,0.576,0.369,0.764,0.604
		c0.188,0.234,0.334,0.455,0.438,0.662h0.083V2.834h2.01v11.339h-1.971v-1.34h-0.122c-0.104,0.206-0.253,0.425-0.448,0.656
		c-0.196,0.23-0.454,0.427-0.775,0.589C72.422,14.241,72.017,14.323,71.53,14.323z M70.979,12.321
		c0.301,0.238,0.671,0.357,1.11,0.357c0.424,0,0.786-0.115,1.085-0.346c0.299-0.23,0.526-0.553,0.681-0.967
		c0.155-0.413,0.233-0.895,0.233-1.444s-0.077-1.028-0.23-1.434c-0.153-0.406-0.378-0.722-0.675-0.947
		c-0.297-0.225-0.662-0.337-1.094-0.337c-0.446,0-0.819,0.116-1.118,0.349s-0.524,0.554-0.675,0.963
		c-0.152,0.41-0.227,0.878-0.227,1.406c0,0.531,0.076,1.005,0.229,1.42S70.678,12.083,70.979,12.321z M80,5.669h-2.004v8.504H80
		V5.669z M79.003,4.462c0.321,0,0.595-0.106,0.822-0.318c0.227-0.212,0.341-0.468,0.341-0.767c0-0.303-0.114-0.56-0.341-0.772
		c-0.227-0.212-0.501-0.318-0.822-0.318c-0.318,0-0.591,0.106-0.819,0.318c-0.229,0.212-0.343,0.47-0.343,0.772
		c0,0.299,0.114,0.554,0.343,0.767C78.412,4.356,78.685,4.462,79.003,4.462z M81.816,13.193c-0.249-0.38-0.374-0.849-0.374-1.406
		c0-0.479,0.088-0.876,0.266-1.19c0.177-0.313,0.419-0.564,0.725-0.753c0.307-0.188,0.652-0.331,1.038-0.429
		s0.785-0.169,1.199-0.213c0.499-0.052,0.902-0.099,1.212-0.141s0.536-0.109,0.678-0.199c0.142-0.091,0.213-0.232,0.213-0.424V8.404
		c0-0.417-0.124-0.74-0.371-0.969s-0.604-0.343-1.068-0.343c-0.491,0-0.879,0.107-1.166,0.321C83.883,7.627,83.69,7.88,83.59,8.172
		l-1.871-0.266c0.147-0.517,0.391-0.95,0.73-1.298c0.34-0.349,0.755-0.611,1.246-0.786c0.491-0.175,1.034-0.263,1.628-0.263
		c0.41,0,0.817,0.048,1.224,0.144c0.406,0.096,0.777,0.254,1.113,0.473c0.336,0.22,0.606,0.518,0.811,0.894
		c0.205,0.376,0.307,0.847,0.307,1.412v5.691h-1.926v-1.168h-0.067c-0.122,0.235-0.292,0.456-0.512,0.661
		c-0.22,0.205-0.495,0.369-0.825,0.493c-0.33,0.123-0.717,0.186-1.16,0.186c-0.539,0-1.023-0.098-1.454-0.291
		C82.405,13.86,82.065,13.573,81.816,13.193z M83.375,11.753c0,0.369,0.135,0.648,0.404,0.836c0.269,0.188,0.612,0.282,1.03,0.282
		c0.402,0,0.751-0.08,1.046-0.24c0.295-0.161,0.523-0.374,0.684-0.64s0.241-0.556,0.241-0.869V10.12
		c-0.062,0.052-0.169,0.1-0.318,0.144c-0.149,0.045-0.316,0.083-0.501,0.116s-0.367,0.063-0.548,0.089
		c-0.181,0.025-0.337,0.048-0.47,0.066c-0.299,0.041-0.567,0.107-0.803,0.199c-0.236,0.093-0.423,0.221-0.56,0.385
		C83.443,11.283,83.375,11.495,83.375,11.753z M53.464,26.618c0.236,0.406,0.354,0.897,0.354,1.473c0,0.587-0.142,1.114-0.426,1.581
		s-0.712,0.835-1.285,1.104c-0.572,0.27-1.292,0.404-2.159,0.404h-4.59V19.842h4.341c0.819,0,1.501,0.128,2.046,0.385
		s0.952,0.606,1.223,1.049c0.271,0.443,0.407,0.945,0.407,1.506c0,0.462-0.089,0.855-0.266,1.183
		c-0.177,0.326-0.416,0.591-0.714,0.794s-0.633,0.349-1.002,0.438v0.111c0.402,0.021,0.789,0.145,1.16,0.368
		C52.924,25.898,53.227,26.212,53.464,26.618z M47.412,24.664h2.032c0.354,0,0.674-0.065,0.958-0.196s0.508-0.317,0.673-0.56
		c0.164-0.241,0.246-0.528,0.246-0.861c0-0.438-0.154-0.801-0.462-1.085c-0.308-0.284-0.765-0.426-1.37-0.426h-2.076V24.664z
		 M51.731,27.931c0-0.336-0.083-0.64-0.249-0.911s-0.402-0.485-0.708-0.642c-0.307-0.157-0.672-0.235-1.096-0.235h-2.265v3.321
		h2.209c0.746,0,1.284-0.143,1.614-0.429C51.566,28.749,51.731,28.381,51.731,27.931z M59.569,22.555
		c-0.487,0-0.92,0.134-1.298,0.401s-0.645,0.646-0.8,1.138h-0.088v-1.417h-1.943v8.504h2.004v-5c0-0.361,0.083-0.681,0.249-0.957
		c0.166-0.277,0.394-0.494,0.684-0.651c0.29-0.156,0.617-0.235,0.983-0.235c0.169,0,0.346,0.013,0.529,0.036
		c0.183,0.024,0.316,0.051,0.401,0.08v-1.843c-0.092-0.019-0.208-0.032-0.346-0.042C59.804,22.56,59.679,22.555,59.569,22.555z
		 M68.59,24.654c0.334,0.66,0.501,1.43,0.501,2.309c0,0.878-0.167,1.646-0.501,2.303s-0.806,1.168-1.415,1.534
		c-0.609,0.365-1.329,0.548-2.159,0.548s-1.55-0.183-2.159-0.548c-0.609-0.366-1.081-0.877-1.415-1.534s-0.501-1.425-0.501-2.303
		c0-0.879,0.167-1.648,0.501-2.309c0.334-0.661,0.806-1.174,1.415-1.54c0.609-0.365,1.329-0.548,2.159-0.548s1.55,0.183,2.159,0.548
		C67.785,23.48,68.257,23.992,68.59,24.654z M67.06,26.956c0-0.521-0.075-0.992-0.224-1.414c-0.149-0.423-0.376-0.76-0.678-1.011
		c-0.303-0.251-0.679-0.377-1.129-0.377c-0.461,0-0.845,0.126-1.149,0.377c-0.305,0.251-0.532,0.588-0.681,1.011
		c-0.149,0.422-0.224,0.894-0.224,1.414c0,0.517,0.075,0.985,0.224,1.406s0.376,0.756,0.681,1.005
		c0.304,0.249,0.688,0.374,1.149,0.374c0.45,0,0.827-0.125,1.129-0.374c0.302-0.249,0.529-0.584,0.678-1.005
		S67.06,27.473,67.06,26.956z M77.13,24.077c0.205,0.376,0.307,0.847,0.307,1.412v5.691h-1.926v-1.168h-0.067
		c-0.122,0.235-0.292,0.456-0.512,0.661c-0.22,0.205-0.495,0.369-0.825,0.493c-0.33,0.123-0.717,0.186-1.16,0.186
		c-0.539,0-1.023-0.098-1.454-0.291c-0.43-0.194-0.77-0.48-1.019-0.861c-0.249-0.38-0.374-0.849-0.374-1.406
		c0-0.479,0.088-0.876,0.266-1.19c0.177-0.313,0.419-0.564,0.725-0.753c0.307-0.188,0.652-0.331,1.038-0.429
		s0.785-0.169,1.199-0.213c0.499-0.052,0.902-0.099,1.212-0.142c0.31-0.042,0.536-0.108,0.678-0.199s0.213-0.231,0.213-0.424v-0.033
		c0-0.417-0.124-0.739-0.371-0.969c-0.247-0.229-0.604-0.343-1.068-0.343c-0.491,0-0.879,0.106-1.166,0.32
		c-0.286,0.215-0.479,0.468-0.579,0.759l-1.871-0.266c0.147-0.517,0.391-0.949,0.73-1.298c0.34-0.35,0.755-0.611,1.246-0.786
		c0.491-0.176,1.034-0.264,1.628-0.264c0.41,0,0.817,0.048,1.224,0.145c0.406,0.096,0.777,0.254,1.113,0.473
		C76.655,23.403,76.925,23.7,77.13,24.077z M75.439,27.128c-0.062,0.052-0.169,0.1-0.318,0.144
		c-0.149,0.045-0.316,0.083-0.501,0.116s-0.367,0.063-0.548,0.089c-0.181,0.025-0.337,0.048-0.47,0.066
		c-0.299,0.041-0.567,0.107-0.803,0.199c-0.236,0.093-0.423,0.221-0.56,0.385c-0.136,0.164-0.205,0.376-0.205,0.634
		c0,0.369,0.135,0.648,0.404,0.836c0.269,0.188,0.612,0.282,1.03,0.282c0.402,0,0.751-0.08,1.046-0.24
		c0.295-0.161,0.523-0.374,0.684-0.64s0.241-0.556,0.241-0.869V27.128z M84.949,19.842h2.01v11.339h-1.971v-1.34h-0.122
		c-0.104,0.206-0.253,0.425-0.448,0.656c-0.196,0.23-0.454,0.427-0.775,0.589c-0.321,0.163-0.725,0.244-1.212,0.244
		c-0.668,0-1.266-0.172-1.794-0.515c-0.528-0.344-0.945-0.842-1.251-1.495c-0.307-0.653-0.459-1.447-0.459-2.381
		c0-0.944,0.156-1.743,0.468-2.395c0.312-0.651,0.733-1.145,1.265-1.479c0.531-0.334,1.124-0.501,1.777-0.501
		c0.499,0,0.908,0.084,1.229,0.252c0.321,0.168,0.576,0.369,0.764,0.604c0.188,0.234,0.334,0.455,0.438,0.662h0.083V19.842z
		 M84.988,26.929c0-0.55-0.077-1.028-0.23-1.435c-0.153-0.405-0.378-0.722-0.675-0.946c-0.297-0.226-0.662-0.338-1.094-0.338
		c-0.446,0-0.819,0.116-1.118,0.349s-0.524,0.554-0.675,0.964c-0.152,0.409-0.227,0.878-0.227,1.406c0,0.531,0.076,1.005,0.229,1.42
		s0.38,0.742,0.681,0.979c0.301,0.238,0.671,0.357,1.11,0.357c0.424,0,0.786-0.115,1.085-0.346c0.299-0.23,0.526-0.553,0.681-0.967
		C84.91,27.96,84.988,27.479,84.988,26.929z M91.503,24.512c0.31-0.22,0.67-0.329,1.08-0.329c0.483,0,0.87,0.138,1.16,0.412
		c0.29,0.275,0.474,0.617,0.551,1.027h1.916c-0.044-0.613-0.225-1.149-0.542-1.608c-0.318-0.46-0.743-0.815-1.276-1.068
		s-1.145-0.38-1.835-0.38c-0.831,0-1.549,0.186-2.156,0.557c-0.607,0.371-1.077,0.888-1.409,1.55
		c-0.332,0.663-0.498,1.426-0.498,2.29c0,0.859,0.163,1.619,0.49,2.278c0.327,0.658,0.793,1.175,1.401,1.547
		c0.607,0.373,1.335,0.56,2.184,0.56c0.712,0,1.333-0.13,1.86-0.391c0.528-0.26,0.945-0.622,1.251-1.085
		c0.307-0.463,0.483-0.996,0.532-1.598h-1.916c-0.059,0.307-0.168,0.567-0.327,0.781s-0.355,0.377-0.59,0.489
		c-0.234,0.113-0.499,0.169-0.794,0.169c-0.417,0-0.78-0.111-1.088-0.335c-0.308-0.223-0.547-0.542-0.717-0.957
		c-0.17-0.416-0.255-0.913-0.255-1.492c0-0.572,0.086-1.063,0.257-1.473C90.952,25.046,91.193,24.732,91.503,24.512z
		 M104.286,24.077c0.205,0.376,0.307,0.847,0.307,1.412v5.691h-1.926v-1.168H102.6c-0.122,0.235-0.292,0.456-0.512,0.661
		c-0.22,0.205-0.495,0.369-0.825,0.493c-0.33,0.123-0.717,0.186-1.16,0.186c-0.539,0-1.023-0.098-1.454-0.291
		c-0.43-0.194-0.77-0.48-1.019-0.861c-0.249-0.38-0.374-0.849-0.374-1.406c0-0.479,0.088-0.876,0.266-1.19
		c0.177-0.313,0.419-0.564,0.725-0.753c0.307-0.188,0.652-0.331,1.038-0.429s0.785-0.169,1.199-0.213
		c0.499-0.052,0.902-0.099,1.212-0.142c0.31-0.042,0.536-0.108,0.678-0.199s0.213-0.231,0.213-0.424v-0.033
		c0-0.417-0.124-0.739-0.371-0.969c-0.247-0.229-0.604-0.343-1.068-0.343c-0.491,0-0.879,0.106-1.166,0.32
		c-0.286,0.215-0.479,0.468-0.579,0.759l-1.871-0.266c0.147-0.517,0.391-0.949,0.73-1.298c0.34-0.35,0.755-0.611,1.246-0.786
		c0.491-0.176,1.034-0.264,1.628-0.264c0.41,0,0.817,0.048,1.224,0.145c0.406,0.096,0.777,0.254,1.113,0.473
		C103.811,23.403,104.081,23.7,104.286,24.077z M102.594,27.128c-0.062,0.052-0.169,0.1-0.318,0.144
		c-0.149,0.045-0.316,0.083-0.501,0.116s-0.367,0.063-0.548,0.089c-0.181,0.025-0.337,0.048-0.47,0.066
		c-0.299,0.041-0.567,0.107-0.803,0.199c-0.236,0.093-0.423,0.221-0.56,0.385c-0.136,0.164-0.205,0.376-0.205,0.634
		c0,0.369,0.135,0.648,0.404,0.836c0.269,0.188,0.612,0.282,1.03,0.282c0.402,0,0.751-0.08,1.046-0.24
		c0.295-0.161,0.523-0.374,0.684-0.64s0.241-0.556,0.241-0.869V27.128z M110.872,26.33l-1.451-0.31
		c-0.432-0.1-0.741-0.228-0.927-0.382c-0.187-0.155-0.278-0.356-0.274-0.604c-0.004-0.288,0.136-0.522,0.418-0.703
		s0.632-0.271,1.049-0.271c0.31,0,0.572,0.05,0.786,0.149c0.214,0.1,0.385,0.23,0.512,0.394c0.127,0.162,0.217,0.336,0.269,0.52
		l1.827-0.199c-0.137-0.723-0.492-1.297-1.066-1.722c-0.574-0.424-1.359-0.637-2.355-0.637c-0.679,0-1.278,0.106-1.797,0.318
		c-0.519,0.213-0.922,0.512-1.212,0.897c-0.29,0.386-0.433,0.841-0.429,1.364c-0.004,0.62,0.19,1.133,0.581,1.536
		c0.391,0.404,0.995,0.691,1.811,0.861l1.451,0.305c0.391,0.085,0.68,0.207,0.866,0.365c0.187,0.159,0.28,0.359,0.28,0.604
		c0,0.288-0.145,0.529-0.435,0.726c-0.29,0.195-0.673,0.293-1.149,0.293c-0.461,0-0.836-0.098-1.124-0.293
		c-0.288-0.196-0.476-0.485-0.564-0.869l-1.955,0.188c0.122,0.783,0.5,1.393,1.135,1.83s1.473,0.656,2.514,0.656
		c0.709,0,1.336-0.114,1.882-0.344c0.546-0.229,0.974-0.547,1.282-0.955c0.308-0.407,0.464-0.879,0.468-1.414
		c-0.003-0.609-0.202-1.102-0.595-1.479C112.276,26.78,111.677,26.504,110.872,26.33z M118.718,29.531
		c-0.056,0.015-0.136,0.031-0.241,0.05c-0.105,0.019-0.22,0.028-0.346,0.028c-0.166,0-0.317-0.026-0.454-0.078
		s-0.247-0.148-0.33-0.29c-0.083-0.143-0.125-0.349-0.125-0.617v-4.396h1.678v-1.55h-1.678v-2.038h-2.004v2.038h-1.207v1.55h1.207
		v4.729c-0.004,0.531,0.111,0.974,0.346,1.328s0.553,0.616,0.955,0.784c0.402,0.167,0.854,0.244,1.356,0.229
		c0.284-0.008,0.525-0.033,0.723-0.078c0.197-0.044,0.35-0.084,0.457-0.121L118.718,29.531z"/>
	<path id="Bildmarke_00000056399258844493853050000017247346143087084174_" class="st0" d="M9.921,9.921
		c0,3.401,2.397,6.24,5.593,6.926l0.222-2.844c-2.318-0.572-4.044-2.65-4.044-5.145c0-2.571,1.826-4.715,4.252-5.208V2.923
		C12.537,3.437,9.921,6.37,9.921,9.921z M28.701,13.11c0-6.099-4.671-11.102-10.63-11.639v0.721c4.586,0.528,8.15,4.419,8.15,9.147
		c0,4.482-3.202,8.213-7.443,9.039l0.33,4.227C24.562,23.614,28.701,18.85,28.701,13.11z M5.315,13.11
		c0,5.74,4.139,10.504,9.593,11.495l0.33-4.227c-4.241-0.826-7.443-4.556-7.443-9.039c0-4.728,3.563-8.619,8.15-9.147V1.471
		C9.986,2.009,5.315,7.011,5.315,13.11z M18.071,0.054v0.709c7.134,0.544,12.756,6.492,12.756,13.765
		c0,6.821-4.946,12.473-11.444,13.601l0.44,5.635c8.051-1.344,14.193-8.324,14.193-16.756C34.016,7.974,26.966,0.605,18.071,0.054z
		 M0,17.008C0,25.44,6.142,32.42,14.193,33.764l0.44-5.635c-6.498-1.128-11.444-6.78-11.444-13.601
		c0-7.273,5.622-13.221,12.756-13.765V0.054C7.049,0.605,0,7.974,0,17.008z M24.094,9.921c0-3.552-2.615-6.484-6.024-6.998V3.65
		c2.426,0.492,4.252,2.637,4.252,5.208c0,2.495-1.726,4.573-4.044,5.145l0.222,2.844C21.697,16.161,24.094,13.322,24.094,9.921z"/>
</g>
</svg>
