<?xml version="1.0" encoding="UTF-8"?>
<svg xmlns="http://www.w3.org/2000/svg" version="1.1" viewBox="0 0 512 512">
  <!-- Generator: Adobe Illustrator 30.5.0, SVG Export Plug-In . SVG Version: 2.1.4 Build 64)  -->
  <defs>
    <style>
      .st0 {
        fill: #37dcc6;
      }

      .st1 {
        fill: #fff;
      }

      .st2 {
        display: none;
      }
    </style>
  </defs>
  <g id="Ebene_2" class="st2">
    <rect class="st0" width="512" height="512"/>
  </g>
  <g id="Ebene_1">
    <g id="Logo">
      <g>
        <path class="st0" d="M255.76,154.76c-21.39,0-41.21,6.95-57.29,18.7l18.41,19.93c11.14-7.4,24.53-11.73,38.88-11.73s27.73,4.33,38.88,11.73l18.41-19.93c-16.08-11.75-35.9-18.7-57.29-18.7ZM329.5,188.66l-18.39,19.93h0c9.39,12,15.02,27.06,15.02,43.45,0,18.9-7.49,36.1-19.66,48.74l19.44,18.56c16.79-17.49,27.13-41.21,27.13-67.31,0-24.19-8.88-46.34-23.54-63.38ZM185.38,252.05c0-16.39,5.63-31.46,15.02-43.43h0l-18.39-19.95c-14.66,17.04-23.54,39.19-23.54,63.38,0,26.1,10.34,49.82,27.13,67.31l19.44-18.59c-12.17-12.65-19.66-29.84-19.66-48.72Z"/>
        <path class="st0" d="M255.76,91.89c-37.82,0-72.64,13.18-100.09,35.2l18.32,19.84c22.58-17.62,50.96-28.14,81.77-28.14s59.19,10.52,81.77,28.14l18.32-19.84c-27.44-22.02-62.26-35.2-100.09-35.2ZM372.31,142.29l-18.3,19.84c21.75,23.72,35,55.29,35,89.91s-14.13,68.18-37.11,92.15l19.44,18.56c27.6-28.79,44.57-67.8,44.57-110.71s-16.59-81.05-43.61-109.75ZM122.51,252.05c0-34.62,13.25-66.19,35-89.91l-18.3-19.84c-27.02,28.7-43.61,67.31-43.61,109.75s16.97,81.93,44.57,110.71l19.44-18.59c-22.98-23.95-37.11-56.41-37.11-92.13h0Z"/>
        <path class="st0" d="M255.76,30.55c-53.86,0-103.29,19.33-141.72,51.43l18.25,19.78c33.61-27.67,76.64-44.3,123.47-44.3s89.86,16.64,123.47,44.3l18.25-19.78c-38.43-32.11-87.87-51.43-141.72-51.43ZM413.96,97.18l-18.27,19.8c33.81,35,54.66,82.64,54.66,135.06s-20.6,99.55-54.12,134.5l19.44,18.56c38.14-39.8,61.59-93.74,61.59-153.07s-24.15-114.91-63.29-154.86h0ZM115.83,116.98l-18.27-19.8c-39.15,39.95-63.29,94.64-63.29,154.86s23.45,113.27,61.57,153.07l19.46-18.56c-33.52-34.95-54.12-82.37-54.12-134.5s20.85-100.06,54.66-135.06Z"/>
      </g>
      <path class="st0" d="M319.98,480.63h-128.45l4.3-15.34,7.29-25.92,9.3-33.14h.02l7.26-25.92,9.73-34.64,7.29-25.9,11.19-39.84c-3.79-1.05-7.26-2.87-10.27-5.27-.96-.76-1.86-1.59-2.71-2.47-5.07-5.22-8.16-12.31-8.16-20.16,0-4.3.94-8.39,2.62-12.04,3.21-7.04,9.15-12.56,16.48-15.2,3.07-1.14,6.41-1.75,9.89-1.75s6.82.61,9.89,1.75c7.33,2.65,13.27,8.16,16.48,15.2,1.68,3.65,2.62,7.74,2.62,12.04,0,7.85-3.12,14.95-8.18,20.16-.85.87-1.75,1.68-2.69,2.44-3,2.4-6.48,4.24-10.29,5.29l11.21,39.84,7.26,25.9,9.73,34.64,7.29,25.92,9.3,33.14,7.29,25.92,4.3,15.34Z"/>
    </g>
    <g id="Logo1" data-name="Logo" class="st2">
      <g>
        <path class="st1" d="M255.76,154.76c-21.39,0-41.21,6.95-57.29,18.7l18.41,19.93c11.14-7.4,24.53-11.73,38.88-11.73s27.73,4.33,38.88,11.73l18.41-19.93c-16.08-11.75-35.9-18.7-57.29-18.7ZM329.5,188.66l-18.39,19.93h0c9.39,12,15.02,27.06,15.02,43.45,0,18.9-7.49,36.1-19.66,48.74l19.44,18.56c16.79-17.49,27.13-41.21,27.13-67.31,0-24.19-8.88-46.34-23.54-63.38ZM185.38,252.05c0-16.39,5.63-31.46,15.02-43.43h0l-18.39-19.95c-14.66,17.04-23.54,39.19-23.54,63.38,0,26.1,10.34,49.82,27.13,67.31l19.44-18.59c-12.17-12.65-19.66-29.84-19.66-48.72Z"/>
        <path class="st1" d="M255.76,91.89c-37.82,0-72.64,13.18-100.09,35.2l18.32,19.84c22.58-17.62,50.96-28.14,81.77-28.14s59.19,10.52,81.77,28.14l18.32-19.84c-27.44-22.02-62.26-35.2-100.09-35.2ZM372.31,142.29l-18.3,19.84c21.75,23.72,35,55.29,35,89.91s-14.13,68.18-37.11,92.15l19.44,18.56c27.6-28.79,44.57-67.8,44.57-110.71s-16.59-81.05-43.61-109.75ZM122.51,252.05c0-34.62,13.25-66.19,35-89.91l-18.3-19.84c-27.02,28.7-43.61,67.31-43.61,109.75s16.97,81.93,44.57,110.71l19.44-18.59c-22.98-23.95-37.11-56.41-37.11-92.13h0Z"/>
        <path class="st1" d="M255.76,30.55c-53.86,0-103.29,19.33-141.72,51.43l18.25,19.78c33.61-27.67,76.64-44.3,123.47-44.3s89.86,16.64,123.47,44.3l18.25-19.78c-38.43-32.11-87.87-51.43-141.72-51.43ZM413.96,97.18l-18.27,19.8c33.81,35,54.66,82.64,54.66,135.06s-20.6,99.55-54.12,134.5l19.44,18.56c38.14-39.8,61.59-93.74,61.59-153.07s-24.15-114.91-63.29-154.86h0ZM115.83,116.98l-18.27-19.8c-39.15,39.95-63.29,94.64-63.29,154.86s23.45,113.27,61.57,153.07l19.46-18.56c-33.52-34.95-54.12-82.37-54.12-134.5s20.85-100.06,54.66-135.06Z"/>
      </g>
      <path class="st1" d="M319.98,480.63h-128.45l4.3-15.34,7.29-25.92,9.3-33.14h.02l7.26-25.92,9.73-34.64,7.29-25.9,11.19-39.84c-3.79-1.05-7.26-2.87-10.27-5.27-.96-.76-1.86-1.59-2.71-2.47-5.07-5.22-8.16-12.31-8.16-20.16,0-4.3.94-8.39,2.62-12.04,3.21-7.04,9.15-12.56,16.48-15.2,3.07-1.14,6.41-1.75,9.89-1.75s6.82.61,9.89,1.75c7.33,2.65,13.27,8.16,16.48,15.2,1.68,3.65,2.62,7.74,2.62,12.04,0,7.85-3.12,14.95-8.18,20.16-.85.87-1.75,1.68-2.69,2.44-3,2.4-6.48,4.24-10.29,5.29l11.21,39.84,7.26,25.9,9.73,34.64,7.29,25.92,9.3,33.14,7.29,25.92,4.3,15.34Z"/>
    </g>
  </g>
</svg>