<?xml version="1.0" encoding="utf-8"?>
<!-- Generator: Adobe Illustrator 24.0.0, SVG Export Plug-In . SVG Version: 6.00 Build 0)  -->
<svg version="1.1" id="Ebene_1" xmlns="http://www.w3.org/2000/svg" xmlns:xlink="http://www.w3.org/1999/xlink" x="0px" y="0px"
	 viewBox="0 0 1350 300" style="enable-background:new 0 0 1350 300;" xml:space="preserve">
<style type="text/css">
	.st0{fill:#8585C2;}
	.st1{fill:#D6D6EB;}
	.st2{fill:#FFFFFF;}
	.st3{fill:#333399;}
</style>
<g>
	<path class="st0" d="M170.3,278.7v-25.8c53.9-3.3,96.7-48,96.7-102.8c0-56.9-46.2-103.1-103.1-103.1
		c-56.9,0-103.1,46.2-103.1,103.1c0,54.8,42.7,99.4,96.7,102.8v25.8C89.3,275.3,35,219.2,35,150.2C35,79,92.7,21.3,163.9,21.3
		c71.2,0,128.9,57.7,128.9,128.9C292.8,219.2,238.5,275.3,170.3,278.7"/>
	<path class="st1" d="M170.3,252.9v-25.8c39.7-3.3,70.9-36.5,70.9-77c0-42.7-34.6-77.3-77.3-77.3c-42.7,0-77.3,34.6-77.3,77.3
		c0,40.5,31.2,73.7,70.9,77v25.8c-53.9-3.3-96.7-48-96.7-102.8c0-56.9,46.2-103.1,103.1-103.1c56.9,0,103.1,46.2,103.1,103.1
		C267,204.9,224.3,249.6,170.3,252.9"/>
	<path class="st2" d="M163.9,72.8c-42.7,0-77.3,34.6-77.3,77.3c0,40.5,31.2,73.7,70.9,77v-135h12.9v135c39.7-3.3,70.9-36.5,70.9-77
		C241.2,107.5,206.6,72.8,163.9,72.8 M138.1,182.4h-12.9v-64.4h12.9V182.4z M202.6,182.4h-12.9v-64.4h12.9V182.4z"/>
	<path class="st2" d="M402.1,179.7c-6.1,9.5-15,14.3-26.8,14.3h-29.3v-85.1h30.1c11.8,0,20.6,4.8,26.3,14.5c2,3.6,3.3,7,3.8,10.2
		c0.5,2.9,0.7,8.9,0.7,17.8c0,7.6-0.1,12.5-0.3,14.7C406,171.5,404.5,176,402.1,179.7 M388.6,129.6c-3.2-4.3-7.8-6.5-13.8-6.5h-13.8
		v56.8h13.8c6.6,0,11.4-2.2,14.4-6.7c1.3-1.9,2.1-4.1,2.4-6.3c0.3-2.3,0.5-7.2,0.5-14.8c0-7.6-0.2-12.7-0.6-15.3
		C391.1,134,390.2,131.7,388.6,129.6"/>
	<path class="st2" d="M429.6,169c0.5,8.1,4.8,12.2,12.9,12.2c4.6,0,8.8-2.1,12.8-6.2l10.3,8.8c-6.2,7.2-13.8,10.8-22.9,10.8
		c-7.6,0-13.7-2.1-18.4-6.3c-6-5.3-9-13.6-9-24.9c0-10.9,2.7-19,8.3-24.5c4.5-4.7,10.2-7,17.2-7c7.1,0,13,2.4,17.8,7.1
		c5.1,4.9,7.7,11.2,7.7,19V169H429.6z M440.9,145.5c-6.8,0-10.5,3.8-11.2,11.4h22.3C451.4,149.3,447.7,145.5,440.9,145.5"/>
	<path class="st2" d="M511.6,189.3c-3.8,3.6-8.6,5.5-14.3,5.5c-5.4,0-10.2-1.8-14.2-5.5c-4.5-4.2-6.8-9.6-6.8-16.2v-40.4h14.2V169
		c0,3.6,1,6.5,3,8.5c2,2,4.5,3,7.6,3c3.1,0,5.6-1,7.6-3c1.9-2,2.9-4.8,2.9-8.5v-36.3h14.2V194h-14.2V189.3z"/>
	<path class="st2" d="M556.2,194c-4.6,0-8.3-1.4-11.2-4.2c-2.9-2.8-4.3-6.6-4.3-11.5v-34.2h-5.9v-11.4h5.9v-17.9H555v17.9h8.6v11.4
		H555v33.2c0,2.2,1,3.3,3,3.3h5.6V194H556.2z"/>
	<path class="st2" d="M598.3,194.7c-10.1,0-19.3-3.9-27.6-11.7l9.9-9.8c5.5,5.3,11.7,8,18.6,8c7,0,10.5-2.1,10.5-6.4
		c0-2.7-2.1-4.3-6.2-4.7l-10.5-0.9c-5.3-0.5-9.6-2.2-12.8-5.2c-3.5-3.2-5.2-7.4-5.2-12.7c0-6.2,2.2-11.1,6.7-14.5
		c4.2-3.2,9.7-4.8,16.4-4.8c9.3,0,17.6,3,24.8,9.1l-8.7,10.2c-5.6-3.9-10.9-5.8-16-5.8c-6,0-9,2-9,5.9c0,2.6,2.2,4.1,6.7,4.4
		l9.8,0.7c6.1,0.5,10.7,2.5,13.8,6c2.9,3.3,4.3,7.5,4.3,12.8c0,6-2.5,10.8-7.6,14.3C611.7,193.1,605.6,194.7,598.3,194.7"/>
	<path class="st2" d="M658.6,194.7c-7.8,0-14.3-2.4-19.3-7.3c-5.7-5.6-8.6-13.6-8.6-24c0-10.5,2.9-18.5,8.6-24.1
		c5-4.9,11.5-7.3,19.3-7.3c8.6,0,16.2,3.8,22.8,11.5l-10.5,9.3c-3.6-4.4-7.6-6.6-11.9-6.6c-9.5,0-14.2,5.7-14.2,17.2
		c0,11.4,4.7,17.1,14.2,17.1c4.3,0,8.2-2.2,11.9-6.6l10.5,9.3C674.8,190.9,667.2,194.7,658.6,194.7"/>
	<path class="st2" d="M703.3,137.5c3.8-3.6,8.6-5.5,14.4-5.5c5.4,0,10,1.8,14.1,5.5c4.5,4.2,6.8,9.6,6.8,16.2V194h-14.2v-36.3
		c0-3.6-1-6.5-2.9-8.5c-1.9-2-4.5-3-7.6-3s-5.6,1-7.6,3c-2,2-3,4.8-3,8.5V194h-14.2v-85.1h14.2V137.5z"/>
	<path class="st2" d="M761.7,169c0.5,8.1,4.8,12.2,12.9,12.2c4.6,0,8.8-2.1,12.8-6.2l10.4,8.8c-6.2,7.2-13.8,10.8-22.9,10.8
		c-7.6,0-13.7-2.1-18.4-6.3c-6-5.3-9-13.6-9-24.9c0-10.9,2.8-19,8.3-24.5c4.5-4.7,10.2-7,17.2-7c7.1,0,13,2.4,17.8,7.1
		c5.1,4.9,7.7,11.2,7.7,19V169H761.7z M772.9,145.5c-6.8,0-10.5,3.8-11.2,11.4h22.3C783.4,149.3,779.7,145.5,772.9,145.5"/>
	<polygon class="st2" points="852.4,123.1 852.4,145.2 886.8,145.2 886.8,158.7 852.4,158.7 852.4,194 837.5,194 837.5,108.9 
		892.7,108.9 892.7,123.1 	"/>
	<path class="st2" d="M932.4,189.3c-3.8,3.6-8.6,5.5-14.3,5.5c-5.4,0-10.2-1.8-14.2-5.5c-4.5-4.2-6.8-9.6-6.8-16.2v-40.4h14.2V169
		c0,3.6,1,6.5,3,8.5c2,2,4.5,3,7.6,3c3.1,0,5.6-1,7.5-3c1.9-2,2.9-4.8,2.9-8.5v-36.3h14.2V194h-14.2V189.3z"/>
	<path class="st2" d="M974.8,137.5c3.8-3.6,8.6-5.5,14.4-5.5c5.3,0,10,1.8,14.1,5.5c4.5,4.2,6.7,9.6,6.7,16.2V194h-14.2v-36.3
		c0-3.6-1-6.5-2.9-8.5c-1.9-2-4.4-3-7.6-3c-3.1,0-5.6,1-7.6,3c-2,2-3,4.8-3,8.5V194h-14.2v-61.3h14.2V137.5z"/>
	<polygon class="st2" points="1036.7,158.5 1057.9,132.7 1075.2,132.7 1053.8,157 1077.5,194 1059.8,194 1044.6,167.3 1036.7,176.3 
		1036.7,194 1022.5,194 1022.5,108.9 1036.7,108.9 	"/>
	<path class="st2" d="M1101.9,194c-4.6,0-8.3-1.4-11.2-4.2c-2.9-2.8-4.3-6.6-4.3-11.5v-34.2h-5.9v-11.4h5.9v-17.9h14.2v17.9h8.6
		v11.4h-8.6v33.2c0,2.2,1,3.3,3,3.3h5.6V194H1101.9z"/>
	<path class="st2" d="M1154.9,189.3c-3.8,3.6-8.6,5.5-14.3,5.5c-5.4,0-10.2-1.8-14.2-5.5c-4.5-4.2-6.8-9.6-6.8-16.2v-40.4h14.2V169
		c0,3.6,1,6.5,3,8.5c2,2,4.5,3,7.6,3c3.1,0,5.6-1,7.6-3c1.9-2,2.9-4.8,2.9-8.5v-36.3h14.2V194h-14.2V189.3z"/>
	<path class="st2" d="M1196.4,137.5c3.8-3.6,8.6-5.5,14.4-5.5c4.6,0,9.2,1.8,14,5.5l-10,12.1c-3-2.2-5.7-3.4-8-3.4
		c-2.9,0-5.2,0.9-7.1,2.7c-2.2,1.9-3.3,4.8-3.3,8.5V194h-14.2v-61.3h14.2V137.5z"/>
	<path class="st2" d="M1244.5,137.5c3.8-3.6,8.6-5.5,14.4-5.5c6.3,0,11.8,2.4,16.6,7.2c4.7-4.8,10.9-7.2,18.6-7.2
		c5.3,0,10,1.8,14.1,5.5c4.5,4.2,6.7,9.6,6.7,16.2V194h-14.2v-36.3c0-3.6-1-6.5-2.9-8.5c-1.9-2-4.5-3-7.6-3c-3.1,0-5.6,1-7.6,3
		c-2,2-3,4.8-3,8.5V194h-14.2v-36.3c0-3.6-1-6.5-2.9-8.5c-1.9-2-4.5-3-7.6-3c-3.1,0-5.6,1-7.6,3c-2,2-3,4.8-3,8.5V194h-14.2v-61.3
		h14.2V137.5z"/>
</g>
<path class="st3" d="M157.4,278.7V92.2h12.9v186.6c0,0-3.5,0.2-6.6,0.2C160.6,278.9,157.4,278.7,157.4,278.7z"/>
<rect x="125.2" y="117.9" class="st3" width="12.9" height="64.4"/>
<rect x="189.7" y="117.9" class="st3" width="12.9" height="64.4"/>
</svg>
