<svg xmlns="http://www.w3.org/2000/svg" viewBox="0 0 815 240"><path fill="#fff" d="m588.391 240 118.971-120L588.391 0v78.074L630.302 120l-41.911 41.926V240ZM303.562 146.776l21.765-133.7402h50.293L337.466 229.078h-56.327L256.697 90.4052 232.254 229.078h-56.327L137.773 13.0358h50.269l21.743 133.7402L231.55 13.0358h50.246l21.766 133.7402Z M489.449 135.408c5.752 8.315 11.2 16.301 16.647 24.287l45.644 69.383h-60.671l-51.42-84.416h-1.926v84.393h-49.917V13.1063c18.244-1.2684 41.606-1.5972 67.598-1.5972 51.02 0 80.769 18.3206 80.769 64.1221 0 29.0778-17.915 52.7538-46.724 59.7768Zm-39.211-26.236c21.225 0 34.726-11.1802 34.726-29.4069 0-16.9348-9.979-27.1756-33.435-27.1521-5.142 0-10.941.3054-13.829.6342v55.2908c2.583.305 7.725.634 12.538.634Z M139.816 159.154c0 41.95-33.529 73.071-88.659 73.071-15.0269 0-30.7347-1.597-44.49366-4.815l2.20708-47.328c12.13888 4.486 30.42938 9.137 46.09028 9.137 18.314 0 31.486-7.681 31.486-23.042 0-15.404-14.8508-21.164-32.2422-27.91C30.0415 128.895.974344 117.62.0186443 75.9366-.897056 35.3494 31.9742 8.52613 86.1414 8.52613c11.505 0 25.8746 1.26835 39.3286 3.85207l-.118 44.0634c-12.139-3.5232-28.3161-6.7411-41.1124-6.7411-20.8967 0-30.8521 8.9489-30.8521 21.1157 0 13.9038 14.7894 19.8656 32.1325 26.8568 24.582 9.91 54.296 21.887 54.296 61.481ZM695.294 78.074V0l118.97 120-118.97 120v-78.074L737.204 120l-41.91-41.926Z"/></svg>